<?xml version="1.0" encoding="UTF-8"?>
<svg width="1273px" height="1274px" viewBox="0 0 1273 1274" version="1.1" xmlns="http://www.w3.org/2000/svg" xmlns:xlink="http://www.w3.org/1999/xlink">
    <title>back #4</title>
    <g id="Page-1" stroke="none" stroke-width="1" fill="none" fill-rule="evenodd">
        <g id="back-#4" fill="#3A7F89">
            <path d="M606.753906,96.1103516 C632.674805,113.936523 655.28418,142.503906 667.141602,159.982422 C724.745644,244.894063 793.600393,262.102836 863.789063,233.099609 C849.923828,271.839844 861.488281,364.330078 961.976563,342.882813 C966.177734,353.107422 966.177734,371.789063 998.914063,376.779297 C967.689453,450.697266 1009.75781,524.769531 1097.30859,513.388672 C1100.87891,528.330078 1097.30859,563.544922 1149.38281,560.970703 C1161.58789,578.779297 1215.22585,649.6646 1227.35156,747.058594 C1243.79812,879.157764 1198.10468,1014.86407 1206.52734,1019.95703 C1053.875,1068.04297 880.933594,922.777344 595.171875,894.007813 C255.260417,886.622396 56.8789063,939.979167 0.02734375,1054.07813 L0.02734375,1273.97656 L1272.02246,1273.97656 L1272.02246,0.861328125 L555.464844,0.861328125 L555.464844,67.484375 C572.376953,74.6842448 589.473307,84.226237 606.753906,96.1103516 Z" id="Line"></path>
        </g>
    </g>
</svg>