<?xml version="1.0" encoding="UTF-8"?>
<svg width="1271px" height="1271px" viewBox="0 0 1271 1271" version="1.1" xmlns="http://www.w3.org/2000/svg" xmlns:xlink="http://www.w3.org/1999/xlink">
    <title>back #3</title>
    <g id="Page-1" stroke="none" stroke-width="1" fill="none" fill-rule="evenodd">
        <g id="back-#3" fill="#2A646A">
            <path d="M503.966797,84.7460938 C534.312198,122.936572 569.987778,160.490152 589.765634,213.867181 C624.564453,307.783203 663.041016,375.458984 781.71875,341.644531 C805.853516,391.880859 845.865234,427.462891 901.515625,407.511719 C897.669922,433.830078 883.876953,487.136719 953.910156,495.058594 C930.568359,522.710938 962.289062,640.289062 1065.38281,575.691406 C1068.78906,587.960938 1065.38281,614.503906 1106.01562,618.710937 C1100.38281,622.951172 1052.99023,658.316406 1113.05078,699.21875 C1121.65625,736.800781 1098.85156,754.351562 1098.85156,795.351562 C904.815104,785.382812 757.861979,837.692708 657.992188,952.28125 L1053.5332,1270.94922 L1270.92188,1270.94922 L1270.92188,0.34765625 L518.5,0.34765625 C503.39974,38.046875 498.555339,66.1796875 503.966797,84.7460938 Z" id="Line-2"></path>
        </g>
    </g>
</svg>