<?xml version="1.0" encoding="UTF-8"?>
<svg width="1269px" height="1273px" viewBox="0 0 1269 1273" version="1.1" xmlns="http://www.w3.org/2000/svg" xmlns:xlink="http://www.w3.org/1999/xlink">
    <title>back #1</title>
    <g id="Page-1" stroke="none" stroke-width="1" fill="none" fill-rule="evenodd">
        <g id="back-#1">
            <g id="Group-3" transform="translate(566.820038, 764.000000)" fill="#3D808C">
                <g id="Tree">
                    <polygon id="Triangle" points="37.8507046 0 56.2189356 32.2310469 19.4824735 32.2310469"></polygon>
                    <polygon id="Triangle" points="37.9774077 11.4368231 64.443461 57.8772563 11.5113544 57.8772563"></polygon>
                    <polygon id="Triangle" points="38.1190171 29.1119134 76.2380342 96 0 96"></polygon>
                </g>
                <g id="Tree" transform="translate(57.882924, 18.000000)">
                    <polygon id="Triangle" points="25.233803 0 37.4792904 21.4873646 12.9883157 21.4873646"></polygon>
                    <polygon id="Triangle" points="25.3182718 7.62454874 42.9623074 38.5848375 7.67423625 38.5848375"></polygon>
                    <polygon id="Triangle" points="25.4126781 19.4079422 50.8253562 64 0 64"></polygon>
                </g>
                <g id="Tree" transform="translate(132.882924, 22.000000)">
                    <polygon id="Triangle" points="19.7139086 0 29.2806956 16.7870036 10.1471216 16.7870036"></polygon>
                    <polygon id="Triangle" points="19.7798998 5.9566787 33.5643026 30.1444043 5.99549707 30.1444043"></polygon>
                    <polygon id="Triangle" points="19.8536547 15.1624549 39.7073095 50 0 50"></polygon>
                </g>
            </g>
            <path d="M399.5,129.496094 C463.9375,143.980469 507.63151,186.515625 530.582031,257.101563 C565.591687,364.776215 640.390858,401.418408 726.398438,384.759766 C733.128906,465.623047 790.722656,475.490234 842.335938,446.039063 C846.826172,465.623047 866.769531,479.462891 886.349609,479.462891 C874.707031,527.501953 886.349609,603.755859 959.117188,606.554688 C955.080693,630.898645 968.455078,690.679688 1004.42188,705.677734 C1019.16565,745.349371 959.117188,845.984375 886.349609,870.25 C806.460938,820.375 525.152344,784.833333 525.152344,897.632813 C525.152344,972.832465 350.217448,1097.62934 0.34765625,1272.02344 L1268.82031,1272.02344 L1268.82031,0.3125 L399.5,0.3125 L399.5,129.496094 Z" id="Line-3" fill="#1C4345"></path>
        </g>
    </g>
</svg>